<?xml version="1.0" standalone="no"?>
<!DOCTYPE svg PUBLIC "-//W3C//DTD SVG 20010904//EN"
 "http://www.w3.org/TR/2001/REC-SVG-20010904/DTD/svg10.dtd">
<svg version="1.0" xmlns="http://www.w3.org/2000/svg"
 width="32.000000pt" height="32.000000pt" viewBox="0 0 32.000000 32.000000"
 preserveAspectRatio="xMidYMid meet">

<g transform="translate(0.000000,32.000000) scale(0.100000,-0.100000)"
fill="#000000" stroke="none">
<path d="M10 252 l0 -57 93 -93 92 -92 58 0 57 0 0 58 0 57 -93 93 -92 92 -58
0 -57 0 0 -58z"/>
<path d="M246 256 c27 -30 52 -54 57 -55 4 -1 7 24 7 54 l0 55 -57 0 -56 0 49
-54z"/>
<path d="M10 65 l0 -55 57 0 57 0 -54 55 c-30 30 -56 55 -57 55 -2 0 -3 -25
-3 -55z"/>
</g>
</svg>
